Hoofdpersonage is Martin Beck, inspecteur bij de Zweedse moordbrigade. Beck is een nuchtere antiheld: hij doet zijn werk en voert uit wat zijn oversten hem opdragen, zonder zich al te veel te storen aan hun ambities of motieven. Een intelligent speurder, die goed kan luisteren en ongee¨venaard is in het maken van analyses en het afnemen van verhoren.

01 De vrouw in het Götakanaal,
In een sluis van het Götakanaal wordt het lijk van een jonge vrouw aangetroffen....

02 De brandweerauto die verdween,
Waarom schreef de man die zichzelf van het leven beroofde vlak voor zijn dood een naam op een blocnote? De naam van een politieman, de naam Martin Beck, chef van de rijksmoordbrigade...

03 De man die even wilde afrekenen,
Op hetzelfde ogenblik trok de man die zojuist gearriveerd was een staalblauw voorwerp met een geprofileerde kolf en een lange loop, mikte nauwkeurig en schoot de spreker in het...

04 De man op het balkon,
Kort na elkaar worden twee jonge meisjes vermoord. Het gehele politiekorps van Stockholm is op de been om de dader op te sporen. Er is slechts één ding over hem bekend: hij is een lustmoordenaar...

05 De politiemoordenaar,
Er lopen voor chef van de rijksmoordbrigade Martin Beck en zijn naaste medewerker Kolberg twee zaken door elkaar. Ze moeten de sadistische moordenaar van een gescheiden vrouw opsporen en zijn tevens ingezet...

06 De terroristen,
De veiligheidsexpert glimlachte tegen Gunvald Larsson, knikte geruststellend en vouwde zijn papier op. Op dat moment opende zich de grond, vlak onder de kogelvrije Cadillac. De luchtdruk sloeg beide mannen naar achteren.Eén ding was..


Six movies about Martin Beck:

01 Roseanna,
On a July afternoon, a young woman's body is dredged from Sweden's beautiful Lake Vattern. With no clues Beck begins an investigation not only to uncover a murderer but also to discover who the victim was...

02 The Fire Engine that Disappeared,
Beck investigating one of the strangest, most violent, and unforgettable crimes of his career.The incendiary device that blew the roof off a Stockholm apartment not only interrupted the small, peaceful orgy underway inside, it nearly took the lives of the building's eleven occupants...

03 The Man Who Went Up in Smoke,
Inspector Martin Beck of the Stockholm Homicide Squad has his summer vacation abruptly terminated when the top brass at the foreign office pack him off to Budapest to search for Alf Matsson, a well-known Swedish journalist who has vanished...

04 The Man on the Balcony,
Martin Beck investigating a string of child murders.In the once peaceful parks of Stockholm, a killer is stalking young girls and disposing their bodies...

05 Cop Killer,
In a country town, a woman is brutally murdered and left buried in a swamp. There are two main suspects: her closest neighbor and her ex-husband. Meanwhile, on a quiet suburban street a midnight shootout takes place between three cops and two teenage boys...

06 The Terrorists,
An American senator is visiting Stockholm and Martin Beck must lead a team to protect him from an international gang of terrorists...

------------------------ Dutch Friends ------------------------
---------------------------------------------------------------
- Bezoek ook eens mijn vrienden op:  http://www.Film-Test.nl --
----- voor mijn Nederlandse Sync. ondertitels ---- en meer ----
------- http://www.Film-Test.nl ---- voor Films en meer -------
---------------------------------------------------------------

General:

Complete name                    : Martin Beck\01 Roseanna.avi
Format                           : AVI
Format/Info                      : Audio Video Interleave
File size                        : 1.18 GiB
Duration                         : 1h 34mn
Overall bit rate                 : 1 776 Kbps

Video:

Format                           : MPEG-4 Visual
Format profile                   : Simple@L3
Format settings, BVOP            : No
Format settings, QPel            : No
Format settings, GMC             : No warppoints
Format settings, Matrix          : Default (H.263)
Codec ID                         : XVID
Codec ID/Hint                    : XviD
Duration                         : 1h 34mn
Bit rate                         : 1 541 Kbps
Width                            : 704 pixels
Height                           : 424 pixels
Display aspect ratio             : 1.660
Frame rate                       : 25.000 fps
Color space                      : YUV
Chroma subsampling               : 4:2:0
Bit depth                        : 8 bits
Scan type                        : Progressive
Compression mode                 : Lossy
Bits/(Pixel*Frame)               : 0.207
Stream size                      : 1.02 GiB (87%)
Writing library                  : XviD 1.1.2 (UTC 2006-11-01)

Audio:

Format                           : AC-3
Format/Info                      : Audio Coding 3
Mode extension                   : CM (complete main)
Codec ID                         : 2000
Duration                         : 1h 34mn
Bit rate mode                    : Constant
Bit rate                         : 224 Kbps
Channel(s)                       : 2 channels
Channel positions                : Front: L R
Sampling rate                    : 48.0 KHz
Bit depth                        : 16 bits
Compression mode                 : Lossy
Stream size                      : 152 MiB (13%)
Alignment                        : Aligned on interleaves
Interleave, duration             : 32 ms (0.80 video frame)
Interleave, preload duration     : 320 ms


